<svg width="271" height="366" viewBox="0 0 271 366" fill="none" xmlns="http://www.w3.org/2000/svg">
<g clip-path="url(#clip0_49_257)">
<path d="M7.32609 14.64C11.3722 14.64 14.6522 11.3627 14.6522 7.32C14.6522 3.27728 11.3722 0 7.32609 0C3.28 0 0 3.27728 0 7.32C0 11.3627 3.28 14.64 7.32609 14.64Z" fill="#1C1F24"/>
<path d="M36.6304 14.64C40.6765 14.64 43.9565 11.3627 43.9565 7.32C43.9565 3.27728 40.6765 0 36.6304 0C32.5844 0 29.3044 3.27728 29.3044 7.32C29.3044 11.3627 32.5844 14.64 36.6304 14.64Z" fill="#1C1F24"/>
<path d="M65.9348 14.64C69.9809 14.64 73.2609 11.3627 73.2609 7.32C73.2609 3.27728 69.9809 0 65.9348 0C61.8887 0 58.6087 3.27728 58.6087 7.32C58.6087 11.3627 61.8887 14.64 65.9348 14.64Z" fill="#1C1F24"/>
<path d="M95.2391 14.64C99.2852 14.64 102.565 11.3627 102.565 7.32C102.565 3.27728 99.2852 0 95.2391 0C91.193 0 87.913 3.27728 87.913 7.32C87.913 11.3627 91.193 14.64 95.2391 14.64Z" fill="#1C1F24"/>
<path d="M124.543 14.64C128.59 14.64 131.87 11.3627 131.87 7.32C131.87 3.27728 128.59 0 124.543 0C120.497 0 117.217 3.27728 117.217 7.32C117.217 11.3627 120.497 14.64 124.543 14.64Z" fill="#1C1F24"/>
<path d="M153.848 14.64C157.894 14.64 161.174 11.3627 161.174 7.32C161.174 3.27728 157.894 0 153.848 0C149.802 0 146.522 3.27728 146.522 7.32C146.522 11.3627 149.802 14.64 153.848 14.64Z" fill="#1C1F24"/>
<path d="M183.152 14.64C187.198 14.64 190.478 11.3627 190.478 7.32C190.478 3.27728 187.198 0 183.152 0C179.106 0 175.826 3.27728 175.826 7.32C175.826 11.3627 179.106 14.64 183.152 14.64Z" fill="#1C1F24"/>
<path d="M212.457 14.64C216.503 14.64 219.783 11.3627 219.783 7.32C219.783 3.27728 216.503 0 212.457 0C208.41 0 205.13 3.27728 205.13 7.32C205.13 11.3627 208.41 14.64 212.457 14.64Z" fill="#1C1F24"/>
<path d="M241.761 14.64C245.807 14.64 249.087 11.3627 249.087 7.32C249.087 3.27728 245.807 0 241.761 0C237.715 0 234.435 3.27728 234.435 7.32C234.435 11.3627 237.715 14.64 241.761 14.64Z" fill="#1C1F24"/>
<path d="M271.065 14.64C275.111 14.64 278.391 11.3627 278.391 7.32C278.391 3.27728 275.111 0 271.065 0C267.019 0 263.739 3.27728 263.739 7.32C263.739 11.3627 267.019 14.64 271.065 14.64Z" fill="#1C1F24"/>
<path d="M7.32609 58.56C11.3722 58.56 14.6522 55.2827 14.6522 51.24C14.6522 47.1973 11.3722 43.92 7.32609 43.92C3.28 43.92 0 47.1973 0 51.24C0 55.2827 3.28 58.56 7.32609 58.56Z" fill="#1C1F24"/>
<path d="M36.6304 58.56C40.6765 58.56 43.9565 55.2827 43.9565 51.24C43.9565 47.1973 40.6765 43.92 36.6304 43.92C32.5844 43.92 29.3044 47.1973 29.3044 51.24C29.3044 55.2827 32.5844 58.56 36.6304 58.56Z" fill="#1C1F24"/>
<path d="M65.9348 58.56C69.9809 58.56 73.2609 55.2827 73.2609 51.24C73.2609 47.1973 69.9809 43.92 65.9348 43.92C61.8887 43.92 58.6087 47.1973 58.6087 51.24C58.6087 55.2827 61.8887 58.56 65.9348 58.56Z" fill="#1C1F24"/>
<path d="M95.2391 58.56C99.2852 58.56 102.565 55.2827 102.565 51.24C102.565 47.1973 99.2852 43.92 95.2391 43.92C91.193 43.92 87.913 47.1973 87.913 51.24C87.913 55.2827 91.193 58.56 95.2391 58.56Z" fill="#1C1F24"/>
<path d="M124.543 58.56C128.59 58.56 131.87 55.2827 131.87 51.24C131.87 47.1973 128.59 43.92 124.543 43.92C120.497 43.92 117.217 47.1973 117.217 51.24C117.217 55.2827 120.497 58.56 124.543 58.56Z" fill="#1C1F24"/>
<path d="M153.848 58.56C157.894 58.56 161.174 55.2827 161.174 51.24C161.174 47.1973 157.894 43.92 153.848 43.92C149.802 43.92 146.522 47.1973 146.522 51.24C146.522 55.2827 149.802 58.56 153.848 58.56Z" fill="#1C1F24"/>
<path d="M183.152 58.56C187.198 58.56 190.478 55.2827 190.478 51.24C190.478 47.1973 187.198 43.92 183.152 43.92C179.106 43.92 175.826 47.1973 175.826 51.24C175.826 55.2827 179.106 58.56 183.152 58.56Z" fill="#1C1F24"/>
<path d="M212.457 58.56C216.503 58.56 219.783 55.2827 219.783 51.24C219.783 47.1973 216.503 43.92 212.457 43.92C208.41 43.92 205.13 47.1973 205.13 51.24C205.13 55.2827 208.41 58.56 212.457 58.56Z" fill="#1C1F24"/>
<path d="M241.761 58.56C245.807 58.56 249.087 55.2827 249.087 51.24C249.087 47.1973 245.807 43.92 241.761 43.92C237.715 43.92 234.435 47.1973 234.435 51.24C234.435 55.2827 237.715 58.56 241.761 58.56Z" fill="#1C1F24"/>
<path d="M271.065 58.56C275.111 58.56 278.391 55.2827 278.391 51.24C278.391 47.1973 275.111 43.92 271.065 43.92C267.019 43.92 263.739 47.1973 263.739 51.24C263.739 55.2827 267.019 58.56 271.065 58.56Z" fill="#1C1F24"/>
<path d="M7.32609 102.48C11.3722 102.48 14.6522 99.2027 14.6522 95.16C14.6522 91.1173 11.3722 87.84 7.32609 87.84C3.28 87.84 0 91.1173 0 95.16C0 99.2027 3.28 102.48 7.32609 102.48Z" fill="#1C1F24"/>
<path d="M36.6304 102.48C40.6765 102.48 43.9565 99.2027 43.9565 95.16C43.9565 91.1173 40.6765 87.84 36.6304 87.84C32.5844 87.84 29.3044 91.1173 29.3044 95.16C29.3044 99.2027 32.5844 102.48 36.6304 102.48Z" fill="#1C1F24"/>
<path d="M65.9348 102.48C69.9809 102.48 73.2609 99.2027 73.2609 95.16C73.2609 91.1173 69.9809 87.84 65.9348 87.84C61.8887 87.84 58.6087 91.1173 58.6087 95.16C58.6087 99.2027 61.8887 102.48 65.9348 102.48Z" fill="#1C1F24"/>
<path d="M95.2391 102.48C99.2852 102.48 102.565 99.2027 102.565 95.16C102.565 91.1173 99.2852 87.84 95.2391 87.84C91.193 87.84 87.913 91.1173 87.913 95.16C87.913 99.2027 91.193 102.48 95.2391 102.48Z" fill="#1C1F24"/>
<path d="M124.543 102.48C128.59 102.48 131.87 99.2027 131.87 95.16C131.87 91.1173 128.59 87.84 124.543 87.84C120.497 87.84 117.217 91.1173 117.217 95.16C117.217 99.2027 120.497 102.48 124.543 102.48Z" fill="#1C1F24"/>
<path d="M153.848 102.48C157.894 102.48 161.174 99.2027 161.174 95.16C161.174 91.1173 157.894 87.84 153.848 87.84C149.802 87.84 146.522 91.1173 146.522 95.16C146.522 99.2027 149.802 102.48 153.848 102.48Z" fill="#1C1F24"/>
<path d="M183.152 102.48C187.198 102.48 190.478 99.2027 190.478 95.16C190.478 91.1173 187.198 87.84 183.152 87.84C179.106 87.84 175.826 91.1173 175.826 95.16C175.826 99.2027 179.106 102.48 183.152 102.48Z" fill="#1C1F24"/>
<path d="M212.457 102.48C216.503 102.48 219.783 99.2027 219.783 95.16C219.783 91.1173 216.503 87.84 212.457 87.84C208.41 87.84 205.13 91.1173 205.13 95.16C205.13 99.2027 208.41 102.48 212.457 102.48Z" fill="#1C1F24"/>
<path d="M241.761 102.48C245.807 102.48 249.087 99.2027 249.087 95.16C249.087 91.1173 245.807 87.84 241.761 87.84C237.715 87.84 234.435 91.1173 234.435 95.16C234.435 99.2027 237.715 102.48 241.761 102.48Z" fill="#1C1F24"/>
<path d="M271.065 102.48C275.111 102.48 278.391 99.2027 278.391 95.16C278.391 91.1173 275.111 87.84 271.065 87.84C267.019 87.84 263.739 91.1173 263.739 95.16C263.739 99.2027 267.019 102.48 271.065 102.48Z" fill="#1C1F24"/>
<path d="M7.32609 146.4C11.3722 146.4 14.6522 143.123 14.6522 139.08C14.6522 135.037 11.3722 131.76 7.32609 131.76C3.28 131.76 0 135.037 0 139.08C0 143.123 3.28 146.4 7.32609 146.4Z" fill="#1C1F24"/>
<path d="M36.6304 146.4C40.6765 146.4 43.9565 143.123 43.9565 139.08C43.9565 135.037 40.6765 131.76 36.6304 131.76C32.5844 131.76 29.3044 135.037 29.3044 139.08C29.3044 143.123 32.5844 146.4 36.6304 146.4Z" fill="#1C1F24"/>
<path d="M65.9348 146.4C69.9809 146.4 73.2609 143.123 73.2609 139.08C73.2609 135.037 69.9809 131.76 65.9348 131.76C61.8887 131.76 58.6087 135.037 58.6087 139.08C58.6087 143.123 61.8887 146.4 65.9348 146.4Z" fill="#1C1F24"/>
<path d="M95.2391 146.4C99.2852 146.4 102.565 143.123 102.565 139.08C102.565 135.037 99.2852 131.76 95.2391 131.76C91.193 131.76 87.913 135.037 87.913 139.08C87.913 143.123 91.193 146.4 95.2391 146.4Z" fill="#1C1F24"/>
<path d="M124.543 146.4C128.59 146.4 131.87 143.123 131.87 139.08C131.87 135.037 128.59 131.76 124.543 131.76C120.497 131.76 117.217 135.037 117.217 139.08C117.217 143.123 120.497 146.4 124.543 146.4Z" fill="#1C1F24"/>
<path d="M153.848 146.4C157.894 146.4 161.174 143.123 161.174 139.08C161.174 135.037 157.894 131.76 153.848 131.76C149.802 131.76 146.522 135.037 146.522 139.08C146.522 143.123 149.802 146.4 153.848 146.4Z" fill="#1C1F24"/>
<path d="M183.152 146.4C187.198 146.4 190.478 143.123 190.478 139.08C190.478 135.037 187.198 131.76 183.152 131.76C179.106 131.76 175.826 135.037 175.826 139.08C175.826 143.123 179.106 146.4 183.152 146.4Z" fill="#1C1F24"/>
<path d="M212.457 146.4C216.503 146.4 219.783 143.123 219.783 139.08C219.783 135.037 216.503 131.76 212.457 131.76C208.41 131.76 205.13 135.037 205.13 139.08C205.13 143.123 208.41 146.4 212.457 146.4Z" fill="#1C1F24"/>
<path d="M241.761 146.4C245.807 146.4 249.087 143.123 249.087 139.08C249.087 135.037 245.807 131.76 241.761 131.76C237.715 131.76 234.435 135.037 234.435 139.08C234.435 143.123 237.715 146.4 241.761 146.4Z" fill="#1C1F24"/>
<path d="M271.065 146.4C275.111 146.4 278.391 143.123 278.391 139.08C278.391 135.037 275.111 131.76 271.065 131.76C267.019 131.76 263.739 135.037 263.739 139.08C263.739 143.123 267.019 146.4 271.065 146.4Z" fill="#1C1F24"/>
<path d="M7.32609 190.32C11.3722 190.32 14.6522 187.043 14.6522 183C14.6522 178.957 11.3722 175.68 7.32609 175.68C3.28 175.68 0 178.957 0 183C0 187.043 3.28 190.32 7.32609 190.32Z" fill="#1C1F24"/>
<path d="M36.6304 190.32C40.6765 190.32 43.9565 187.043 43.9565 183C43.9565 178.957 40.6765 175.68 36.6304 175.68C32.5844 175.68 29.3044 178.957 29.3044 183C29.3044 187.043 32.5844 190.32 36.6304 190.32Z" fill="#1C1F24"/>
<path d="M65.9348 190.32C69.9809 190.32 73.2609 187.043 73.2609 183C73.2609 178.957 69.9809 175.68 65.9348 175.68C61.8887 175.68 58.6087 178.957 58.6087 183C58.6087 187.043 61.8887 190.32 65.9348 190.32Z" fill="#1C1F24"/>
<path d="M95.2391 190.32C99.2852 190.32 102.565 187.043 102.565 183C102.565 178.957 99.2852 175.68 95.2391 175.68C91.193 175.68 87.913 178.957 87.913 183C87.913 187.043 91.193 190.32 95.2391 190.32Z" fill="#1C1F24"/>
<path d="M124.543 190.32C128.59 190.32 131.87 187.043 131.87 183C131.87 178.957 128.59 175.68 124.543 175.68C120.497 175.68 117.217 178.957 117.217 183C117.217 187.043 120.497 190.32 124.543 190.32Z" fill="#1C1F24"/>
<path d="M153.848 190.32C157.894 190.32 161.174 187.043 161.174 183C161.174 178.957 157.894 175.68 153.848 175.68C149.802 175.68 146.522 178.957 146.522 183C146.522 187.043 149.802 190.32 153.848 190.32Z" fill="#1C1F24"/>
<path d="M183.152 190.32C187.198 190.32 190.478 187.043 190.478 183C190.478 178.957 187.198 175.68 183.152 175.68C179.106 175.68 175.826 178.957 175.826 183C175.826 187.043 179.106 190.32 183.152 190.32Z" fill="#1C1F24"/>
<path d="M212.457 190.32C216.503 190.32 219.783 187.043 219.783 183C219.783 178.957 216.503 175.68 212.457 175.68C208.41 175.68 205.13 178.957 205.13 183C205.13 187.043 208.41 190.32 212.457 190.32Z" fill="#1C1F24"/>
<path d="M241.761 190.32C245.807 190.32 249.087 187.043 249.087 183C249.087 178.957 245.807 175.68 241.761 175.68C237.715 175.68 234.435 178.957 234.435 183C234.435 187.043 237.715 190.32 241.761 190.32Z" fill="#1C1F24"/>
<path d="M271.065 190.32C275.111 190.32 278.391 187.043 278.391 183C278.391 178.957 275.111 175.68 271.065 175.68C267.019 175.68 263.739 178.957 263.739 183C263.739 187.043 267.019 190.32 271.065 190.32Z" fill="#1C1F24"/>
<path d="M7.32609 234.24C11.3722 234.24 14.6522 230.963 14.6522 226.92C14.6522 222.877 11.3722 219.6 7.32609 219.6C3.28 219.6 0 222.877 0 226.92C0 230.963 3.28 234.24 7.32609 234.24Z" fill="#1C1F24"/>
<path d="M36.6304 234.24C40.6765 234.24 43.9565 230.963 43.9565 226.92C43.9565 222.877 40.6765 219.6 36.6304 219.6C32.5844 219.6 29.3044 222.877 29.3044 226.92C29.3044 230.963 32.5844 234.24 36.6304 234.24Z" fill="#1C1F24"/>
<path d="M65.9348 234.24C69.9809 234.24 73.2609 230.963 73.2609 226.92C73.2609 222.877 69.9809 219.6 65.9348 219.6C61.8887 219.6 58.6087 222.877 58.6087 226.92C58.6087 230.963 61.8887 234.24 65.9348 234.24Z" fill="#1C1F24"/>
<path d="M95.2391 234.24C99.2852 234.24 102.565 230.963 102.565 226.92C102.565 222.877 99.2852 219.6 95.2391 219.6C91.193 219.6 87.913 222.877 87.913 226.92C87.913 230.963 91.193 234.24 95.2391 234.24Z" fill="#1C1F24"/>
<path d="M124.543 234.24C128.59 234.24 131.87 230.963 131.87 226.92C131.87 222.877 128.59 219.6 124.543 219.6C120.497 219.6 117.217 222.877 117.217 226.92C117.217 230.963 120.497 234.24 124.543 234.24Z" fill="#1C1F24"/>
<path d="M153.848 234.24C157.894 234.24 161.174 230.963 161.174 226.92C161.174 222.877 157.894 219.6 153.848 219.6C149.802 219.6 146.522 222.877 146.522 226.92C146.522 230.963 149.802 234.24 153.848 234.24Z" fill="#1C1F24"/>
<path d="M183.152 234.24C187.198 234.24 190.478 230.963 190.478 226.92C190.478 222.877 187.198 219.6 183.152 219.6C179.106 219.6 175.826 222.877 175.826 226.92C175.826 230.963 179.106 234.24 183.152 234.24Z" fill="#1C1F24"/>
<path d="M212.457 234.24C216.503 234.24 219.783 230.963 219.783 226.92C219.783 222.877 216.503 219.6 212.457 219.6C208.41 219.6 205.13 222.877 205.13 226.92C205.13 230.963 208.41 234.24 212.457 234.24Z" fill="#1C1F24"/>
<path d="M241.761 234.24C245.807 234.24 249.087 230.963 249.087 226.92C249.087 222.877 245.807 219.6 241.761 219.6C237.715 219.6 234.435 222.877 234.435 226.92C234.435 230.963 237.715 234.24 241.761 234.24Z" fill="#1C1F24"/>
<path d="M271.065 234.24C275.111 234.24 278.391 230.963 278.391 226.92C278.391 222.877 275.111 219.6 271.065 219.6C267.019 219.6 263.739 222.877 263.739 226.92C263.739 230.963 267.019 234.24 271.065 234.24Z" fill="#1C1F24"/>
<path d="M7.32609 278.16C11.3722 278.16 14.6522 274.883 14.6522 270.84C14.6522 266.797 11.3722 263.52 7.32609 263.52C3.28 263.52 0 266.797 0 270.84C0 274.883 3.28 278.16 7.32609 278.16Z" fill="#1C1F24"/>
<path d="M36.6304 278.16C40.6765 278.16 43.9565 274.883 43.9565 270.84C43.9565 266.797 40.6765 263.52 36.6304 263.52C32.5844 263.52 29.3044 266.797 29.3044 270.84C29.3044 274.883 32.5844 278.16 36.6304 278.16Z" fill="#1C1F24"/>
<path d="M65.9348 278.16C69.9809 278.16 73.2609 274.883 73.2609 270.84C73.2609 266.797 69.9809 263.52 65.9348 263.52C61.8887 263.52 58.6087 266.797 58.6087 270.84C58.6087 274.883 61.8887 278.16 65.9348 278.16Z" fill="#1C1F24"/>
<path d="M95.2391 278.16C99.2852 278.16 102.565 274.883 102.565 270.84C102.565 266.797 99.2852 263.52 95.2391 263.52C91.193 263.52 87.913 266.797 87.913 270.84C87.913 274.883 91.193 278.16 95.2391 278.16Z" fill="#1C1F24"/>
<path d="M124.543 278.16C128.59 278.16 131.87 274.883 131.87 270.84C131.87 266.797 128.59 263.52 124.543 263.52C120.497 263.52 117.217 266.797 117.217 270.84C117.217 274.883 120.497 278.16 124.543 278.16Z" fill="#1C1F24"/>
<path d="M153.848 278.16C157.894 278.16 161.174 274.883 161.174 270.84C161.174 266.797 157.894 263.52 153.848 263.52C149.802 263.52 146.522 266.797 146.522 270.84C146.522 274.883 149.802 278.16 153.848 278.16Z" fill="#1C1F24"/>
<path d="M183.152 278.16C187.198 278.16 190.478 274.883 190.478 270.84C190.478 266.797 187.198 263.52 183.152 263.52C179.106 263.52 175.826 266.797 175.826 270.84C175.826 274.883 179.106 278.16 183.152 278.16Z" fill="#1C1F24"/>
<path d="M212.457 278.16C216.503 278.16 219.783 274.883 219.783 270.84C219.783 266.797 216.503 263.52 212.457 263.52C208.41 263.52 205.13 266.797 205.13 270.84C205.13 274.883 208.41 278.16 212.457 278.16Z" fill="#1C1F24"/>
<path d="M241.761 278.16C245.807 278.16 249.087 274.883 249.087 270.84C249.087 266.797 245.807 263.52 241.761 263.52C237.715 263.52 234.435 266.797 234.435 270.84C234.435 274.883 237.715 278.16 241.761 278.16Z" fill="#1C1F24"/>
<path d="M271.065 278.16C275.111 278.16 278.391 274.883 278.391 270.84C278.391 266.797 275.111 263.52 271.065 263.52C267.019 263.52 263.739 266.797 263.739 270.84C263.739 274.883 267.019 278.16 271.065 278.16Z" fill="#1C1F24"/>
<path d="M7.32609 322.08C11.3722 322.08 14.6522 318.803 14.6522 314.76C14.6522 310.717 11.3722 307.44 7.32609 307.44C3.28 307.44 0 310.717 0 314.76C0 318.803 3.28 322.08 7.32609 322.08Z" fill="#1C1F24"/>
<path d="M36.6304 322.08C40.6765 322.08 43.9565 318.803 43.9565 314.76C43.9565 310.717 40.6765 307.44 36.6304 307.44C32.5844 307.44 29.3044 310.717 29.3044 314.76C29.3044 318.803 32.5844 322.08 36.6304 322.08Z" fill="#1C1F24"/>
<path d="M65.9348 322.08C69.9809 322.08 73.2609 318.803 73.2609 314.76C73.2609 310.717 69.9809 307.44 65.9348 307.44C61.8887 307.44 58.6087 310.717 58.6087 314.76C58.6087 318.803 61.8887 322.08 65.9348 322.08Z" fill="#1C1F24"/>
<path d="M95.2391 322.08C99.2852 322.08 102.565 318.803 102.565 314.76C102.565 310.717 99.2852 307.44 95.2391 307.44C91.193 307.44 87.913 310.717 87.913 314.76C87.913 318.803 91.193 322.08 95.2391 322.08Z" fill="#1C1F24"/>
<path d="M124.543 322.08C128.59 322.08 131.87 318.803 131.87 314.76C131.87 310.717 128.59 307.44 124.543 307.44C120.497 307.44 117.217 310.717 117.217 314.76C117.217 318.803 120.497 322.08 124.543 322.08Z" fill="#1C1F24"/>
<path d="M153.848 322.08C157.894 322.08 161.174 318.803 161.174 314.76C161.174 310.717 157.894 307.44 153.848 307.44C149.802 307.44 146.522 310.717 146.522 314.76C146.522 318.803 149.802 322.08 153.848 322.08Z" fill="#1C1F24"/>
<path d="M183.152 322.08C187.198 322.08 190.478 318.803 190.478 314.76C190.478 310.717 187.198 307.44 183.152 307.44C179.106 307.44 175.826 310.717 175.826 314.76C175.826 318.803 179.106 322.08 183.152 322.08Z" fill="#1C1F24"/>
<path d="M212.457 322.08C216.503 322.08 219.783 318.803 219.783 314.76C219.783 310.717 216.503 307.44 212.457 307.44C208.41 307.44 205.13 310.717 205.13 314.76C205.13 318.803 208.41 322.08 212.457 322.08Z" fill="#1C1F24"/>
<path d="M241.761 322.08C245.807 322.08 249.087 318.803 249.087 314.76C249.087 310.717 245.807 307.44 241.761 307.44C237.715 307.44 234.435 310.717 234.435 314.76C234.435 318.803 237.715 322.08 241.761 322.08Z" fill="#1C1F24"/>
<path d="M271.065 322.08C275.111 322.08 278.391 318.803 278.391 314.76C278.391 310.717 275.111 307.44 271.065 307.44C267.019 307.44 263.739 310.717 263.739 314.76C263.739 318.803 267.019 322.08 271.065 322.08Z" fill="#1C1F24"/>
<path d="M7.32609 366C11.3722 366 14.6522 362.723 14.6522 358.68C14.6522 354.637 11.3722 351.36 7.32609 351.36C3.28 351.36 0 354.637 0 358.68C0 362.723 3.28 366 7.32609 366Z" fill="#1C1F24"/>
<path d="M36.6304 366C40.6765 366 43.9565 362.723 43.9565 358.68C43.9565 354.637 40.6765 351.36 36.6304 351.36C32.5844 351.36 29.3044 354.637 29.3044 358.68C29.3044 362.723 32.5844 366 36.6304 366Z" fill="#1C1F24"/>
<path d="M65.9348 366C69.9809 366 73.2609 362.723 73.2609 358.68C73.2609 354.637 69.9809 351.36 65.9348 351.36C61.8887 351.36 58.6087 354.637 58.6087 358.68C58.6087 362.723 61.8887 366 65.9348 366Z" fill="#1C1F24"/>
<path d="M95.2391 366C99.2852 366 102.565 362.723 102.565 358.68C102.565 354.637 99.2852 351.36 95.2391 351.36C91.193 351.36 87.913 354.637 87.913 358.68C87.913 362.723 91.193 366 95.2391 366Z" fill="#1C1F24"/>
<path d="M124.543 366C128.59 366 131.87 362.723 131.87 358.68C131.87 354.637 128.59 351.36 124.543 351.36C120.497 351.36 117.217 354.637 117.217 358.68C117.217 362.723 120.497 366 124.543 366Z" fill="#1C1F24"/>
<path d="M153.848 366C157.894 366 161.174 362.723 161.174 358.68C161.174 354.637 157.894 351.36 153.848 351.36C149.802 351.36 146.522 354.637 146.522 358.68C146.522 362.723 149.802 366 153.848 366Z" fill="#1C1F24"/>
<path d="M183.152 366C187.198 366 190.478 362.723 190.478 358.68C190.478 354.637 187.198 351.36 183.152 351.36C179.106 351.36 175.826 354.637 175.826 358.68C175.826 362.723 179.106 366 183.152 366Z" fill="#1C1F24"/>
<path d="M212.457 366C216.503 366 219.783 362.723 219.783 358.68C219.783 354.637 216.503 351.36 212.457 351.36C208.41 351.36 205.13 354.637 205.13 358.68C205.13 362.723 208.41 366 212.457 366Z" fill="#1C1F24"/>
<path d="M241.761 366C245.807 366 249.087 362.723 249.087 358.68C249.087 354.637 245.807 351.36 241.761 351.36C237.715 351.36 234.435 354.637 234.435 358.68C234.435 362.723 237.715 366 241.761 366Z" fill="#1C1F24"/>
<path d="M271.065 366C275.111 366 278.391 362.723 278.391 358.68C278.391 354.637 275.111 351.36 271.065 351.36C267.019 351.36 263.739 354.637 263.739 358.68C263.739 362.723 267.019 366 271.065 366Z" fill="#1C1F24"/>
</g>
<defs>
<clipPath id="clip0_49_257">
<rect width="337" height="366" fill="white"/>
</clipPath>
</defs>
</svg>
